<?xml version="1.0" standalone="no"?>
<!DOCTYPE svg PUBLIC "-//W3C//DTD SVG 20010904//EN"
 "http://www.w3.org/TR/2001/REC-SVG-20010904/DTD/svg10.dtd">
<svg version="1.0" xmlns="http://www.w3.org/2000/svg"
 width="299.000000pt" height="299.000000pt" viewBox="0 0 299.000000 299.000000"
 preserveAspectRatio="xMidYMid meet">
<metadata>
Created by potrace 1.11, written by Peter Selinger 2001-2013
</metadata>
<g transform="translate(0.000000,299.000000) scale(0.100000,-0.100000)"
fill="#000000" stroke="none">
<path d="M483 2540 c-22 -13 -35 -31 -43 -60 -8 -28 -10 -226 -8 -638 3 -596
3 -597 26 -654 43 -107 144 -194 252 -217 70 -15 1180 -15 1250 0 151 32 266
171 272 328 l3 58 110 6 c139 7 220 32 320 99 176 117 268 291 267 503 0 87
-5 116 -30 188 -66 192 -222 337 -417 387 -76 19 -110 20 -1024 20 -920 0
-947 -1 -978 -20z m1944 -295 c61 -18 144 -88 176 -149 18 -34 22 -57 22 -136
0 -109 -15 -148 -82 -212 -63 -60 -112 -80 -213 -86 l-89 -5 -3 302 -3 301 71
0 c39 0 93 -7 121 -15z"/>
<path d="M37 728 c7 -57 26 -122 49 -162 30 -52 98 -122 148 -151 96 -56 71
-55 1201 -55 1130 0 1105 -1 1201 55 50 29 118 99 148 151 23 40 42 105 49
162 l4 32 -1402 0 -1402 0 4 -32z"/>
</g>
</svg>
